# xmcd CD database file generated by OrangeCD 6.4
#
# Track frame offsets:
#	150
#	9647
#	29099
#	48713
#	71242
#	116214
#	140049
#	161072
#
# Disc length: 2761 seconds
#
# Revision: 0
# Processed by: cddbd v1.5.2PL0 Copyright (c) Steve Scherf et al.
# Submitted via: OrangeCD 6.4
#
DISCID=7f0ac708
DTITLE=Jimi Hendrix - Enjoy Jimi Hendrix
DYEAR=2009
DGENRE=Blues
TTITLE0=Introduction
TTITLE1=Spanish Castle Magic
TTITLE2=Foxy Lady
TTITLE3=Lover Man
TTITLE4=Getting My Heart Back Together Again (Hear My Train A' Comin')
TTITLE5=Message To Love
TTITLE6=Ezy Rider
TTITLE7=Machine Gun
EXTD=
EXTT0=
EXTT1=
EXTT2=
EXTT3=
EXTT4=
EXTT5=
EXTT6=
EXTT7=
PLAYORDER=
